# xmcd
#
# Track frame offsets:
#	150
#	16114
#	30457
#	44424
#	66224
#	90282
#	107111
#	119667
#	140397
#	149217
#	168505
#	185881
#	201932
#	225032
#	235832
#	256716
#
# Disc length: 3654 seconds
#
# Revision: 1
# Processed by: cddbd v1.5.2PL0 Copyright (c) Steve Scherf et al.
# Submitted via: audiograbber 1.83.01
#
DISCID=da0e4410
DTITLE=The Fabulous Thunderbirds - Live In Wiesbaden
DYEAR=1998
DGENRE=Rock
TTITLE0=Jumpin Bad
TTITLE1=Back With Me
TTITLE2=Wait On Time
TTITLE3=Scatch My Back
TTITLE4=Feelin´ Good
TTITLE5=She´s Tuff
TTITLE6=Walkin´ To My Baby
TTITLE7=Fulltime Lover
TTITLE8=You Ain´t Nothing But Time
TTITLE9=Runnin´ Shoes
TTITLE10=Sugar Coated Love
TTITLE11=The Crawl
TTITLE12=Instrumental
TTITLE13=Cherry Pink, Apple Blossom White
TTITLE14=Marked Deck
TTITLE15=I´m Sweet On You
EXTD=
EXTT0=
EXTT1=
EXTT2=
EXTT3=
EXTT4=
EXTT5=
EXTT6=
EXTT7=
EXTT8=
EXTT9=
EXTT10=
EXTT11=
EXTT12=
EXTT13=
EXTT14=
EXTT15=
PLAYORDER=
